{"title":"Star Wars Episode VI - Return Of The Jedi 1983 BRRip 720p x264 A","uid":7833086,"size":775349681,"categoryP":"video","categoryS":"hd___movies","magnet":"?xt=urn:btih:7f50fb5639605bd290cee060f20338f4b414bce5&amp;dn=Star+Wars+Episode+VI+-+Return+Of+The+Jedi+1983+BRRip+720p+x264+A&amp;tr=udp%3A%2F%2Ftracker.openbittorrent.com%3A80&amp;tr=udp%3A%2F%2Fopen.demonii.com%3A1337&amp;tr=udp%3A%2F%2Ftracker.coppersurfer.tk%3A6969&amp;tr=udp%3A%2F%2Fexodus.desync.com%3A6969","seeders":6,"leechers":1,"uploader":"Vitamin_X","files":-1,"time":1353121612,"description":"Star Wars Episode VI - Return Of The Jedi 1983 BRRip 720p x264 AAC ViZNU [VX] [P2PDL]\n &lt;a href=&quot;\nhttp://www.shotpix.com/images/45242921772478417430.jpg&quot; rel=&quot;nofollow&quot; target=&quot;_NEW&quot;&gt;\nhttp://www.shotpix.com/images/45242921772478417430.jpg&lt;/a&gt;\n\nRelease Title: Star Wars: Episode VI - Return of the Jedi (1983)\n\nTagline: The Saga Continues.\n\nGenres: Action | Adventure | Fantasy | Sci-Fi\n\nRatings: 8.4/10 |  &lt;a href=&quot;\nhttp://www.imdb.com/title/tt0086190/&quot; rel=&quot;nofollow&quot; target=&quot;_NEW&quot;&gt;\nhttp://www.imdb.com/title/tt0086190/&lt;/a&gt;\n\nPlot: After rescuing Han Solo from the palace of Jabba the Hutt, the Rebels attempt to destroy the Second Death Star, while Luke Skywalker tries to bring his father back to the Light Side of the Force.\n\nDirector: Richard Marquand\n\nStars: Mark Hamill, Harrison Ford and Carrie Fisher \n\nRated: Rated PG for sci-fi action violence.\n\n\nGeneral\nFormat                         : MPEG-4\nFormat profile                 : Base Media / Version 2\nCodec ID                       : mp42\nFile size                      : 731 MiB\nDuration                       : 2h 14mn\n\nSource                         : 720p-Tobotron (Thanks!)\n\nVideo\nID                             : 1\nFormat                         : AVC\nFormat/Info                    : Advanced Video Codec\nWidth                          : 1 280 pixels\nHeight                         : 544 pixels\nDisplay aspect ratio           : 2.35:1\nFrame rate mode                : Variable\nFrame rate                     : 23.976 fps\nColor space                    : YUV\nChroma subsampling             : 4:2:0\nBit depth                      : 8 bits\nScan type                      : Progressive\nBits/(Pixel*Frame)             : 0.039\nStream size                    : 631 MiB (86%)\nWriting library                : x264 core 128\n\nAudio\nID                             : 2\nFormat                         : AAC\nFormat/Info                    : Advanced Audio Codec\nFormat profile                 : LC\nCodec ID                       : 40\nDuration                       : 2h 14mn\nBit rate mode                  : Variable\nChannel(s)                     : 2 channels\nChannel positions              : Front: L R\nSampling rate                  : 48.0 KHz\nStream size                    : 92.5 MiB (13%)\nLanguage                       : English\n\nSubtitles                      : Yes (Muxed, Multiple Languages - English, Spanish, French, Portuguese)\n\nScreens:\n &lt;a href=&quot;\nhttp://www.shotpix.com/images/74520167068943910038.jpg&quot; rel=&quot;nofollow&quot; target=&quot;_NEW&quot;&gt;\nhttp://www.shotpix.com/images/74520167068943910038.jpg&lt;/a&gt; &lt;a href=&quot;\nhttp://www.shotpix.com/images/95891654214986019443.jpg&quot; rel=&quot;nofollow&quot; target=&quot;_NEW&quot;&gt;\nhttp://www.shotpix.com/images/95891654214986019443.jpg&lt;/a&gt; &lt;a href=&quot;\nhttp://www.shotpix.com/images/70972933897633095427.jpg&quot; rel=&quot;nofollow&quot; target=&quot;_NEW&quot;&gt;\nhttp://www.shotpix.com/images/70972933897633095427.jpg&lt;/a&gt; &lt;a href=&quot;\nhttp://www.shotpix.com/images/50438016016052013803.jpg&quot; rel=&quot;nofollow&quot; target=&quot;_NEW&quot;&gt;\nhttp://www.shotpix.com/images/50438016016052013803.jpg&lt;/a&gt; &lt;a href=&quot;\nhttp://www.shotpix.com/images/88885373779818955721.jpg&quot; rel=&quot;nofollow&quot; target=&quot;_NEW&quot;&gt;\nhttp://www.shotpix.com/images/88885373779818955721.jpg&lt;/a&gt; &lt;a href=&quot;\nhttp://www.shotpix.com/images/43297706186788944470.jpg&quot; rel=&quot;nofollow&quot; target=&quot;_NEW&quot;&gt;\nhttp://www.shotpix.com/images/43297706186788944470.jpg&lt;/a&gt; &lt;a href=&quot;\nhttp://www.shotpix.com/images/75957219024656236489.jpg&quot; rel=&quot;nofollow&quot; target=&quot;_NEW&quot;&gt;\nhttp://www.shotpix.com/images/75957219024656236489.jpg&lt;/a&gt;\n\nThumbs:\n &lt;a href=&quot;\nhttp://www.shotpix.com/images/51537091214593441560.jpg&quot; rel=&quot;nofollow&quot; target=&quot;_NEW&quot;&gt;\nhttp://www.shotpix.com/images/51537091214593441560.jpg&lt;/a&gt;\n------------------------------------------------------------------------\n\n\nNotes:\n\n* Check sample to be sure.\n* Recommended to use latest version VLC Media Player.\n* Install updated shark007 codecs in case of any kind of problem in playback (For non-VLC Media Player users).\n* Alternatively, install Core AVC codecs, the fastest decoder that there is coupled with Community Center Codec Pack and play on Windows Media Player Classic.\n* Read NFO.\n* Help in seeding as much as you can. \n\n\nGreets to: VYTO, a2zRG, K1ng_rulz, staff members at ExtraTorrent, TPB,KAT, 1337x, PublicHD, Ahashare,\nSilverTorrent, TorrentMafia, Digtorrent, BTScene, P2PDL, and all others\n\n\nEncoder Notes: Looking For Early Access To Anything You Can Provide DVDScr, R5, DVDRips, BluRay, Direct Audio, Early Music\nReleases, Seedboxes, Links, Dedicated Servers anything u can provide, Advance / Promo CDs/DVDs. If You Got anything to\noffer contact me at &quot;&lt;a class=&quot;__cf_email__&quot; href=&quot;/cdn-cgi/l/email-protection&quot; data-cfemail=&quot;f3838194b39b86809bdd909c9e&quot;&gt;[email&amp;#160;protected]&lt;/a&gt;&lt;script cf-hash='f9e31' type=&quot;text/javascript&quot;&gt;\n/* &lt;![CDATA[ */!function(){try{var t=&quot;currentScript&quot;in document?document.currentScript:function(){for(var t=document.getElementsByTagName(&quot;script&quot;),e=t.length;e--;)if(t[e].getAttribute(&quot;cf-hash&quot;))return t[e]}();if(t&amp;&amp;t.previousSibling){var e,r,n,i,c=t.previousSibling,a=c.getAttribute(&quot;data-cfemail&quot;);if(a){for(e=&quot;&quot;,r=parseInt(a.substr(0,2),16),n=2;a.length-n;n+=2)i=parseInt(a.substr(n,2),16)^r,e+=String.fromCharCode(i);e=document.createTextNode(e),c.parentNode.replaceChild(e,c)}}}catch(u){}}();/* ]]&gt; */&lt;/script&gt;&quot;\n\n\nFacebook Fan Page: www . facebook . com / p2pdl\n\nEnhanced for best viewing experience. Enjoy!","torrent":{"xt":"urn:btih:7f50fb5639605bd290cee060f20338f4b414bce5","amp;dn":"Star+Wars+Episode+VI+-+Return+Of+The+Jedi+1983+BRRip+720p+x264+A","amp;tr":["udp%3A%2F%2Ftracker.openbittorrent.com%3A80","udp%3A%2F%2Fopen.demonii.com%3A1337","udp%3A%2F%2Ftracker.coppersurfer.tk%3A6969","udp%3A%2F%2Fexodus.desync.com%3A6969"],"infoHash":"7f50fb5639605bd290cee060f20338f4b414bce5","infoHashBuffer":{"type":"Buffer","data":[127,80,251,86,57,96,91,210,144,206,224,96,242,3,56,244,180,20,188,229]},"announce":[],"urlList":[]}}